v -0.533590 4.356306 2.218733
v -0.533590 5.156306 2.218733
v -0.533590 4.356306 0.218733
v -0.533590 5.156306 0.218733
v 1.466410 4.356306 2.218733
v 1.466410 5.156306 2.218733
v 1.466410 4.356306 0.218733
v 1.466410 5.156306 0.218733
v 0.799743 4.356306 0.218733
v 0.133077 4.356306 0.218733
v 0.133077 5.156306 0.218733
v 0.799743 5.156306 0.218733
v 0.133077 4.356306 2.218733
v 0.799743 4.356306 2.218733
v 0.799743 5.156306 2.218733
v 0.133077 5.156306 2.218733
v -0.533590 4.356306 0.885399
v -0.533590 4.356306 1.552066
v -0.533590 5.156306 1.552066
v -0.533590 5.156306 0.885399
v 1.466410 4.356306 1.552066
v 1.466410 4.356306 0.885399
v 1.466410 5.156306 0.885399
v 1.466410 5.156306 1.552066
v 0.799743 5.156306 0.885399
v 0.799743 5.156306 1.552066
v 0.133077 5.156306 0.885399
v 0.133077 5.156306 1.552066
v 0.133077 4.356306 0.885399
v 0.133077 4.356306 1.552066
v 0.799743 4.356306 0.885399
v 0.799743 4.356306 1.552066
v -1.258170 4.114604 1.641254
v 0.799743 2.756306 1.552066
v 1.466410 2.756306 1.552066
v 1.466410 2.756306 2.218733
v 0.799743 2.756306 2.218733
v -0.533590 2.756306 1.552066
v 0.133077 2.756306 1.552066
v 0.133077 2.756306 2.218733
v -0.533590 2.756306 2.218733
v -0.533590 2.756306 0.218733
v 0.133077 2.756306 0.218733
v 0.133077 2.756306 0.885399
v -0.533590 2.756306 0.885399
v 0.799743 6.756306 0.218733
v 0.133077 6.756306 0.218733
v 0.133077 6.756306 0.885399
v 0.799743 6.756306 0.885399
v 1.466410 6.756306 0.218733
v 0.799743 6.756306 0.218733
v 0.799743 6.756306 0.885399
v 1.466410 6.756306 0.885399
v 0.133077 6.756306 0.218733
v -0.533590 6.756306 0.218733
v -0.533590 6.756306 0.885399
v 0.133077 6.756306 0.885399
v 0.799743 2.756306 0.218733
v 1.466410 2.756306 0.218733
v 1.466410 2.756306 0.885399
v 0.799743 2.756306 0.885399
v 0.799743 7.956306 0.218733
v 0.133077 7.956306 0.218733
v 0.133077 7.956306 0.885399
v 0.799743 7.956306 0.885399
v 1.466410 7.956306 0.218733
v 0.799743 7.956306 0.218733
v 0.799743 7.956306 0.885399
v 1.466410 7.956306 0.885399
v 0.133077 7.956306 0.218733
v -0.533590 7.956306 0.218733
v -0.533590 7.956306 0.885399
v 0.133077 7.956306 0.885399
vn -1.0000 0.0000 0.0000
vn 0.0000 0.0000 -1.0000
vn 1.0000 0.0000 0.0000
vn 0.0000 0.0000 1.0000
vn 0.0000 1.0000 0.0000
vn 0.0000 -1.0000 0.0000
f 20//1 3//1 17//1
f 12//2 7//2 9//2
f 24//3 5//3 21//3
f 16//4 1//4 13//4
f 67//2 50//2 51//2
f 19//5 16//5 28//5
f 26//5 6//5 24//5
f 28//5 15//5 26//5
f 67//5 69//5 66//5
f 32//6 13//6 30//6
f 6//4 14//4 5//4
f 15//4 13//4 14//4
f 4//2 10//2 3//2
f 11//2 9//2 10//2
f 9//6 29//6 10//6
f 31//6 30//6 29//6
f 62//3 49//3 46//3
f 29//6 18//6 17//6
f 65//4 48//4 49//4
f 27//5 26//5 25//5
f 64//1 47//1 48//1
f 25//5 24//5 23//5
f 63//2 46//2 47//2
f 20//5 28//5 27//5
f 63//5 65//5 62//5
f 22//6 32//6 31//6
f 8//3 22//3 7//3
f 23//3 21//3 22//3
f 2//1 18//1 1//1
f 19//1 17//1 18//1
f 35//6 37//6 34//6
f 35//2 32//2 21//2
f 36//3 21//3 5//3
f 37//4 5//4 14//4
f 34//1 14//1 32//1
f 39//6 41//6 38//6
f 39//2 18//2 30//2
f 40//3 30//3 13//3
f 41//4 13//4 1//4
f 38//1 1//1 18//1
f 43//6 45//6 42//6
f 43//2 3//2 10//2
f 44//3 10//3 29//3
f 45//4 29//4 17//4
f 42//1 17//1 3//1
f 47//2 12//2 11//2
f 48//1 11//1 27//1
f 49//4 27//4 25//4
f 46//3 25//3 12//3
f 51//2 8//2 12//2
f 52//1 12//1 25//1
f 53//4 25//4 23//4
f 50//3 23//3 8//3
f 55//2 11//2 4//2
f 56//1 4//1 20//1
f 57//4 20//4 27//4
f 54//3 27//3 11//3
f 59//6 61//6 58//6
f 59//2 9//2 7//2
f 60//3 7//3 22//3
f 61//4 22//4 31//4
f 58//1 31//1 9//1
f 68//1 51//1 52//1
f 69//4 52//4 53//4
f 66//3 53//3 50//3
f 71//5 73//5 70//5
f 71//2 54//2 55//2
f 72//1 55//1 56//1
f 73//4 56//4 57//4
f 70//3 57//3 54//3
f 20//1 4//1 3//1
f 12//2 8//2 7//2
f 24//3 6//3 5//3
f 16//4 2//4 1//4
f 67//2 66//2 50//2
f 19//5 2//5 16//5
f 26//5 15//5 6//5
f 28//5 16//5 15//5
f 67//5 68//5 69//5
f 32//6 14//6 13//6
f 6//4 15//4 14//4
f 15//4 16//4 13//4
f 4//2 11//2 10//2
f 11//2 12//2 9//2
f 9//6 31//6 29//6
f 31//6 32//6 30//6
f 62//3 65//3 49//3
f 29//6 30//6 18//6
f 65//4 64//4 48//4
f 27//5 28//5 26//5
f 64//1 63//1 47//1
f 25//5 26//5 24//5
f 63//2 62//2 46//2
f 20//5 19//5 28//5
f 63//5 64//5 65//5
f 22//6 21//6 32//6
f 8//3 23//3 22//3
f 23//3 24//3 21//3
f 2//1 19//1 18//1
f 19//1 20//1 17//1
f 35//6 36//6 37//6
f 35//2 34//2 32//2
f 36//3 35//3 21//3
f 37//4 36//4 5//4
f 34//1 37//1 14//1
f 39//6 40//6 41//6
f 39//2 38//2 18//2
f 40//3 39//3 30//3
f 41//4 40//4 13//4
f 38//1 41//1 1//1
f 43//6 44//6 45//6
f 43//2 42//2 3//2
f 44//3 43//3 10//3
f 45//4 44//4 29//4
f 42//1 45//1 17//1
f 47//2 46//2 12//2
f 48//1 47//1 11//1
f 49//4 48//4 27//4
f 46//3 49//3 25//3
f 51//2 50//2 8//2
f 52//1 51//1 12//1
f 53//4 52//4 25//4
f 50//3 53//3 23//3
f 55//2 54//2 11//2
f 56//1 55//1 4//1
f 57//4 56//4 20//4
f 54//3 57//3 27//3
f 59//6 60//6 61//6
f 59//2 58//2 9//2
f 60//3 59//3 7//3
f 61//4 60//4 22//4
f 58//1 61//1 31//1
f 68//1 67//1 51//1
f 69//4 68//4 52//4
f 66//3 69//3 53//3
f 71//5 72//5 73//5
f 71//2 70//2 54//2
f 72//1 71//1 55//1
f 73//4 72//4 56//4
f 70//3 73//3 57//3
